HIERARCHY
ROOT root
{
	OFFSET 0.000000 0.000000 0.000000
	CHANNELS 6 Xposition Yposition Zposition Zrotation Yrotation Xrotation
	JOINT lhip
	{
		OFFSET 0.058581 -0.082280 -0.017664
		CHANNELS 3 Zrotation Yrotation Xrotation
		JOINT lknee
		{
			OFFSET 0.043451 -0.386469 0.008037
			CHANNELS 3 Zrotation Yrotation Xrotation
			JOINT lankle
			{
				OFFSET -0.014790 -0.426874 -0.037428
				CHANNELS 3 Zrotation Yrotation Xrotation
				JOINT ltoe
				{
					OFFSET 0.041054 -0.060286 0.122042
					CHANNELS 3 Zrotation Yrotation Xrotation
					End Site
					{
						OFFSET 0.000000 0.000000 0.000000
					}
				}
			}
		}
	}
	JOINT rhip
	{
		OFFSET -0.060310 -0.090513 -0.013543
		CHANNELS 3 Zrotation Yrotation Xrotation
		JOINT rknee
		{
			OFFSET -0.043257 -0.383688 -0.004843
			CHANNELS 3 Zrotation Yrotation Xrotation
			JOINT rankle
			{
				OFFSET 0.019056 -0.420046 -0.034562
				CHANNELS 3 Zrotation Yrotation Xrotation
				JOINT rtoe
				{
					OFFSET -0.034840 -0.062106 0.130323
					CHANNELS 3 Zrotation Yrotation Xrotation
					End Site
					{
						OFFSET 0.000000 0.000000 0.000000
					}
				}
			}
		}
	}
	JOINT lowerback
	{
		OFFSET 0.004439 0.124404 -0.038385
		CHANNELS 3 Zrotation Yrotation Xrotation
		JOINT upperback
		{
			OFFSET 0.004488 0.137956 0.026820
			CHANNELS 3 Zrotation Yrotation Xrotation
			JOINT chest
			{
				OFFSET -0.002265 0.056032 0.002855
				CHANNELS 3 Zrotation Yrotation Xrotation
				JOINT lowerneck
				{
					OFFSET -0.013390 0.211636 -0.033468
					CHANNELS 3 Zrotation Yrotation Xrotation
					JOINT upperneck
					{
						OFFSET 0.010113 0.088937 0.050410
						CHANNELS 3 Zrotation Yrotation Xrotation
						End Site
						{
							OFFSET 0.000000 0.000000 0.000000
						}
					}
				}
				JOINT lclavicle
				{
					OFFSET 0.071702 0.114000 -0.018898
					CHANNELS 3 Zrotation Yrotation Xrotation
					JOINT lshoulder
					{
						OFFSET 0.122921 0.045205 -0.019046
						CHANNELS 3 Zrotation Yrotation Xrotation
						JOINT lelbow
						{
							OFFSET 0.255332 -0.015649 -0.022946
							CHANNELS 3 Zrotation Yrotation Xrotation
							JOINT lwrist
							{
								OFFSET 0.265709 0.012698 -0.007375
								CHANNELS 3 Zrotation Yrotation Xrotation
								End Site
								{
									OFFSET 0.000000 0.000000 0.000000
								}
							}
						}
					}
				}
				JOINT rclavicle
				{
					OFFSET -0.082954 0.112472 -0.023707
					CHANNELS 3 Zrotation Yrotation Xrotation
					JOINT rshoulder
					{
						OFFSET -0.113228 0.046853 -0.008472
						CHANNELS 3 Zrotation Yrotation Xrotation
						JOINT relbow
						{
							OFFSET -0.260127 -0.014369 -0.031269
							CHANNELS 3 Zrotation Yrotation Xrotation
							JOINT rwrist
							{
								OFFSET -0.269108 0.006794 -0.006027
								CHANNELS 3 Zrotation Yrotation Xrotation
								End Site
								{
									OFFSET 0.000000 0.000000 0.000000
								}
							}
						}
					}
				}
			}
		}
	}
}
MOTION
Frames: 11
Frame Time: 0.033333
-0.361691 0.621603 0.960092 88.630484 -0.827362 103.863177 16.653697 6.748690 -20.746518 -4.705051 -1.482582 9.704009 -6.511684 1.671148 -12.761993 0.000000 -0.000000 0.000000 -16.130869 -6.947527 -28.390006 -0.839676 -3.822680 18.856341 8.454010 -1.671493 -8.775678 0.000000 -0.000000 0.000000 1.603279 -0.723415 32.179237 -1.402897 -3.145379 -3.016822 1.934938 -0.903470 -0.221920 -1.674134 1.283494 -6.609308 7.041302 -3.175287 -1.385810 -13.056540 -20.636012 4.546742 -57.451631 -13.839488 13.680131 8.645403 -51.052054 30.598464 51.284848 -27.096488 -11.308861 9.512624 26.664233 4.826593 57.733263 21.078750 14.602451 -6.614160 45.598560 27.940996 -45.315273 26.490770 9.971140 
-0.361205 0.621133 0.960100 88.775676 -0.708043 103.708612 16.783041 6.937765 -20.607011 -4.685144 -1.441370 9.665814 -6.883569 1.368096 -12.456204 0.000000 -0.000000 0.000000 -16.029253 -6.811583 -28.041814 -0.818691 -3.872400 18.706770 7.784811 -1.812984 -8.973165 0.000000 -0.000000 0.000000 1.827922 -0.938983 32.108242 -1.435133 -3.094106 -3.112041 1.861590 -0.800761 0.130220 -1.891799 1.522421 -7.218621 7.034351 -3.658722 -0.789358 -12.915460 -20.639352 4.196767 -57.642238 -13.932855 13.791221 8.610777 -50.702463 30.739427 50.590033 -26.969500 -11.105419 9.310644 26.536217 4.671160 57.994322 21.326201 14.606526 -6.479183 45.246173 28.417010 -45.578024 26.235224 9.734321 
-0.360971 0.621132 0.960177 88.676635 -0.741862 103.541647 16.689891 6.989108 -20.387723 -4.612879 -1.583452 9.716656 -6.818087 1.413085 -12.826608 0.000000 -0.000000 0.000000 -16.106214 -6.671058 -27.900376 -0.890209 -3.932863 18.742627 8.913849 -1.387884 -8.910128 0.000000 -0.000000 0.000000 1.752314 -0.843347 32.175321 -1.440704 -3.105578 -3.043515 1.901318 -0.727991 -0.148829 -1.853343 1.539199 -6.763299 6.944583 -3.595274 -0.871646 -13.037430 -21.047298 4.419821 -57.663037 -13.804211 13.941189 9.070287 -50.209526 29.965632 51.034086 -27.159249 -11.158193 9.377858 26.981575 4.660241 57.986512 20.943423 14.801868 -6.864868 44.974097 27.627809 -45.547571 26.187169 10.001858 
-0.360220 0.620796 0.960067 88.663767 -0.919187 103.557149 16.593493 6.684352 -20.252744 -4.515549 -1.316263 9.532727 -7.059782 1.566296 -12.659078 0.000000 -0.000000 0.000000 -16.282698 -6.862075 -27.882556 -1.002694 -4.258023 18.765884 9.674148 -0.810644 -8.623187 0.000000 -0.000000 0.000000 1.589126 -0.648427 32.097833 -1.425922 -3.251909 -3.268583 1.990269 -0.775473 0.025529 -2.030073 1.578401 -6.421507 7.090685 -3.746481 -1.335055 -13.051142 -21.299902 4.591513 -57.555910 -13.798607 14.045085 8.926102 -49.897190 29.505397 52.057566 -27.183823 -11.343216 9.430537 26.886460 4.627073 58.048097 21.079219 14.694637 -6.416527 44.672091 27.819356 -45.368888 26.417486 9.965772 
-0.359672 0.620713 0.959973 88.725345 -0.846026 103.460553 16.706901 6.595637 -20.249540 -4.463950 -1.134331 9.773770 -6.713241 1.439616 -12.730590 0.000000 -0.000000 0.000000 -16.195973 -6.885840 -27.699213 -0.963261 -4.213252 18.733701 9.651058 -0.792816 -8.381435 0.000000 -0.000000 0.000000 1.674123 -0.762386 32.103829 -1.417918 -3.293587 -3.119498 1.987793 -0.643967 -0.082895 -2.122435 1.371379 -6.403511 7.078337 -3.678341 -1.487253 -13.035631 -21.361638 4.555370 -57.458934 -13.839306 13.907588 8.889931 -49.782816 29.725538 51.532892 -27.412517 -11.243884 9.275724 27.104324 4.660095 58.249017 20.975336 14.724588 -6.862522 44.583145 27.554506 -45.094180 26.444353 9.922406 
-0.358891 0.620955 0.959820 88.718519 -0.813975 103.345140 16.696737 6.759037 -20.242401 -4.611926 -1.459287 10.092791 -6.449787 1.714992 -12.776778 0.000000 -0.000000 0.000000 -16.142528 -7.105899 -27.610858 -1.024272 -4.399212 18.868450 9.906624 -0.595421 -8.233381 0.000000 -0.000000 0.000000 1.781737 -0.848990 32.329239 -1.447041 -3.281529 -3.456451 1.991424 -0.504317 0.124499 -2.251357 1.576776 -6.527427 6.979586 -3.874929 -1.371204 -12.820420 -21.373671 4.276616 -57.535550 -13.794539 14.093500 8.138115 -49.712583 30.354523 51.692866 -27.078273 -11.285099 8.910630 27.072173 4.465881 58.371283 20.904279 14.818800 -6.638274 44.572524 27.772319 -45.502451 26.236604 9.937833 
-0.357957 0.620140 0.959864 88.646212 -0.837991 103.358754 16.651250 6.957010 -20.191776 -4.488446 -1.058781 10.090991 -6.580954 1.326977 -12.645756 0.000000 -0.000000 0.000000 -16.077855 -7.047339 -27.496877 -1.185372 -4.573500 18.740527 9.847665 -0.689254 -8.111983 0.000000 -0.000000 0.000000 1.576745 -0.795766 32.262709 -1.435299 -3.333991 -3.131668 2.014494 -0.480572 -0.353000 -2.310658 1.636275 -6.234807 7.055474 -3.945867 -1.162410 -12.890386 -21.321010 4.562380 -57.548085 -13.663453 13.922551 8.341495 -49.826851 30.179730 51.152039 -27.249434 -10.693671 9.235708 27.255292 4.882865 58.271803 20.830671 14.731072 -6.668768 44.572245 27.712666 -45.076239 26.256865 9.984010 
-0.357773 0.620565 0.959732 88.684505 -0.700508 103.368306 16.746119 6.898484 -20.321801 -4.332912 -0.715468 10.224854 -6.757967 1.370248 -12.252575 0.000000 -0.000000 0.000000 -15.958991 -7.055182 -27.503869 -1.083287 -4.462752 18.709829 9.981249 -1.072196 -8.055417 0.000000 -0.000000 0.000000 1.748627 -1.017141 32.277012 -1.481505 -3.292554 -3.217594 1.899846 -0.464343 -0.078417 -2.427334 1.328271 -6.649032 7.282903 -3.808016 -0.806358 -12.476961 -21.339283 4.427435 -57.768205 -13.821344 14.022209 8.134959 -49.433823 29.830352 52.480209 -27.594882 -11.068456 9.174648 27.463020 4.920153 58.221114 20.911407 14.754231 -6.733422 44.583069 27.079511 -45.657488 26.677844 10.300603 
-0.357615 0.620853 0.959561 88.454385 -0.777827 103.356365 16.627517 7.003265 -20.328399 -4.368857 -0.847675 10.406023 -6.967539 1.779406 -12.512131 0.000000 -0.000000 0.000000 -15.969410 -7.125127 -27.756659 -1.182464 -4.340076 19.008547 9.920077 -1.020879 -8.015036 0.000000 -0.000000 0.000000 1.713385 -0.877512 32.403235 -1.602892 -3.261204 -3.028864 1.831085 -0.431100 -0.174037 -2.452013 1.448840 -6.648117 7.347647 -4.007814 -0.968190 -12.486691 -21.295999 4.539246 -57.534182 -13.679824 13.697733 7.876134 -49.877383 30.551090 51.977080 -27.410894 -11.295055 9.209718 27.233528 4.901957 58.333128 20.956083 14.472311 -6.642915 44.672583 27.573348 -45.810155 26.749458 10.339809 
-0.357803 0.621030 0.959720 88.108841 -0.735774 103.490462 16.666663 7.135331 -20.348297 -4.419523 -0.476239 10.482430 -7.253308 1.701706 -12.627633 0.000000 -0.000000 0.000000 -15.967817 -6.877857 -27.995186 -1.263547 -4.599070 19.038540 9.977930 -0.964374 -7.972100 0.000000 -0.000000 0.000000 1.570116 -0.670109 32.481924 -1.643429 -3.124997 -3.079918 1.911380 -0.440623 -0.294759 -2.427146 1.746113 -6.486257 7.260145 -3.914595 -1.181027 -12.583776 -21.257107 4.759944 -57.536029 -13.554694 13.617644 8.192017 -50.254387 30.182827 51.691898 -27.578017 -11.030578 9.232708 27.157846 5.026977 58.320826 20.855722 14.501760 -6.377814 45.049541 27.680079 -46.132939 26.531862 9.946907 
-0.358195 0.620710 0.959665 87.908017 -0.785079 103.654608 16.604980 7.276065 -20.710702 -4.623276 -0.877898 11.084676 -6.660306 1.886778 -13.155174 0.000000 -0.000000 0.000000 -15.849660 -6.931990 -28.562562 -1.142239 -4.072918 19.490855 9.287839 -1.590605 -7.933812 0.000000 -0.000000 0.000000 1.324392 -0.534902 32.392792 -1.672348 -3.011220 -3.301340 1.934548 -0.520653 -0.062737 -2.379622 1.512560 -6.492911 7.426911 -3.842904 -0.577404 -12.617538 -20.892520 4.870470 -57.642313 -13.638235 13.509882 8.329460 -50.654148 30.719753 51.592073 -27.312960 -11.327984 9.250278 27.017590 5.053633 58.514219 20.867858 14.567869 -6.440078 45.349096 28.029225 -46.189209 26.401863 9.532769 
